<svg xmlns="http://www.w3.org/2000/svg" xmlns:xlink="http://www.w3.org/1999/xlink" width="720" zoomAndPan="magnify" viewBox="0 280 720 170" height="170" preserveAspectRatio="xMidYMid meet" version="1.0"><defs><g/><clipPath id="2112a48984"><path d="M 0.636719 66 L 122.625 66 L 122.625 123.035156 L 0.636719 123.035156 Z M 0.636719 66 " clip-rule="nonzero"/></clipPath><clipPath id="e162a39787"><path d="M 0.636719 1.046875 L 122.625 1.046875 L 122.625 63 L 0.636719 63 Z M 0.636719 1.046875 " clip-rule="nonzero"/></clipPath><clipPath id="79f9abe922"><rect x="0" width="689" y="0" height="128"/></clipPath></defs><!-- removed bg --><!-- removed bg --><g transform="matrix(1, 0, 0, 1, 30, 312)"><g clip-path="url(#79f9abe922)"><g fill="#404041" fill-opacity="1"><g transform="translate(130.722796, 97.349053)"><g><path d="M 20.734375 -34.671875 C 20.734375 -31.085938 21.585938 -27.796875 23.296875 -24.796875 C 25.003906 -21.804688 27.3125 -19.398438 30.21875 -17.578125 C 33.125 -15.765625 36.367188 -14.859375 39.953125 -14.859375 C 43.535156 -14.859375 46.765625 -15.765625 49.640625 -17.578125 C 52.523438 -19.398438 54.820312 -21.804688 56.53125 -24.796875 C 58.238281 -27.796875 59.09375 -31.085938 59.09375 -34.671875 C 59.09375 -38.242188 58.238281 -41.523438 56.53125 -44.515625 C 54.820312 -47.515625 52.523438 -49.910156 49.640625 -51.703125 C 46.765625 -53.492188 43.535156 -54.390625 39.953125 -54.390625 C 36.367188 -54.390625 33.125 -53.492188 30.21875 -51.703125 C 27.3125 -49.910156 25.003906 -47.515625 23.296875 -44.515625 C 21.585938 -41.523438 20.734375 -38.242188 20.734375 -34.671875 Z M 5.03125 -34.671875 C 5.03125 -39.535156 5.925781 -44.117188 7.71875 -48.421875 C 9.507812 -52.734375 12 -56.554688 15.1875 -59.890625 C 18.382812 -63.222656 22.09375 -65.820312 26.3125 -67.6875 C 30.539062 -69.5625 35.085938 -70.5 39.953125 -70.5 C 44.816406 -70.5 49.363281 -69.5625 53.59375 -67.6875 C 57.820312 -65.820312 61.515625 -63.222656 64.671875 -59.890625 C 67.835938 -56.554688 70.3125 -52.734375 72.09375 -48.421875 C 73.882812 -44.117188 74.78125 -39.535156 74.78125 -34.671875 C 74.78125 -29.796875 73.882812 -25.191406 72.09375 -20.859375 C 70.3125 -16.523438 67.835938 -12.707031 64.671875 -9.40625 C 61.515625 -6.101562 57.820312 -3.5 53.59375 -1.59375 C 49.363281 0.3125 44.816406 1.265625 39.953125 1.265625 C 35.085938 1.265625 30.539062 0.3125 26.3125 -1.59375 C 22.09375 -3.5 18.382812 -6.101562 15.1875 -9.40625 C 12 -12.707031 9.507812 -16.523438 7.71875 -20.859375 C 5.925781 -25.191406 5.03125 -29.796875 5.03125 -34.671875 Z M 5.03125 -34.671875 "/></g></g></g><g fill="#404041" fill-opacity="1"><g transform="translate(212.218931, 97.349053)"><g><path d="M 45.578125 -69.25 L 45.578125 -55.40625 L 21.234375 -55.40625 L 21.234375 -41.640625 L 43.734375 -41.640625 L 43.734375 -27.78125 L 21.234375 -27.78125 L 21.234375 0 L 5.453125 0 L 5.453125 -69.25 Z M 45.578125 -69.25 "/></g></g></g><g fill="#404041" fill-opacity="1"><g transform="translate(264.92705, 97.349053)"><g><path d="M 4.28125 -55.40625 L 4.28125 -69.25 L 52.96875 -69.25 L 52.96875 -55.40625 L 36.515625 -55.40625 L 36.515625 0 L 20.734375 0 L 20.734375 -55.40625 Z M 4.28125 -55.40625 "/></g></g></g><g fill="#404041" fill-opacity="1"><g transform="translate(323.846004, 97.349053)"><g><path d="M 21.3125 -69.25 L 21.3125 -13.84375 L 45.15625 -13.84375 L 45.15625 0 L 5.546875 0 L 5.546875 -69.25 Z M 21.3125 -69.25 "/></g></g></g><g fill="#404041" fill-opacity="1"><g transform="translate(376.2184, 97.349053)"><g><path d="M 46.328125 -69.25 L 74.375 0 L 57.40625 0 L 52.203125 -13.84375 L 25.859375 -13.84375 L 20.8125 0 L 3.859375 0 L 31.734375 -69.25 Z M 46.84375 -27.703125 L 38.953125 -47.84375 L 31.21875 -27.703125 Z M 46.84375 -27.703125 "/></g></g></g><g fill="#404041" fill-opacity="1"><g transform="translate(456.035914, 97.349053)"><g><path d="M 6.296875 0 L 6.296875 -69.25 L 49.609375 -33.578125 L 49.78125 -69.25 L 65.5625 -69.25 L 65.5625 0 L 22.078125 -35.59375 L 22.078125 0 Z M 6.296875 0 "/></g></g></g><g fill="#404041" fill-opacity="1"><g transform="translate(529.558678, 97.349053)"><g><path d="M 45.578125 -69.25 L 45.578125 -55.40625 L 21.734375 -55.40625 L 21.734375 -41.640625 L 44.578125 -41.640625 L 44.578125 -27.78125 L 21.734375 -27.78125 L 21.734375 -13.84375 L 45.578125 -13.84375 L 45.578125 0 L 5.953125 0 L 5.953125 -69.25 Z M 45.578125 -69.25 "/></g></g></g><g fill="#404041" fill-opacity="1"><g transform="translate(582.686437, 97.349053)"><g/></g></g><g fill="#404041" fill-opacity="1"><g transform="translate(598.297482, 97.349053)"><g><path d="M 22.078125 -69.25 L 22.078125 0 L 6.296875 0 L 6.296875 -69.25 Z M 22.078125 -69.25 "/></g></g></g><g fill="#404041" fill-opacity="1"><g transform="translate(628.344476, 97.349053)"><g><path d="M 4.28125 -55.40625 L 4.28125 -69.25 L 52.96875 -69.25 L 52.96875 -55.40625 L 36.515625 -55.40625 L 36.515625 0 L 20.734375 0 L 20.734375 -55.40625 Z M 4.28125 -55.40625 "/></g></g></g><g clip-path="url(#2112a48984)"><path fill="#404041" d="M 122.71875 66.703125 L 122.71875 76.296875 C 122.71875 89.1875 117.453125 100.894531 108.96875 109.378906 C 100.484375 117.863281 88.777344 123.128906 75.886719 123.128906 L 47.464844 123.128906 C 34.578125 123.128906 22.871094 117.863281 14.386719 109.378906 C 5.902344 100.894531 0.636719 89.1875 0.636719 76.296875 L 0.636719 66.703125 C 6.460938 69.109375 12.414062 71.121094 18.503906 72.738281 L 18.503906 76.296875 C 18.503906 84.253906 21.765625 91.492188 27.019531 96.746094 C 32.273438 102 39.511719 105.261719 47.464844 105.261719 L 75.886719 105.261719 C 83.84375 105.261719 91.082031 102 96.335938 96.746094 C 101.589844 91.492188 104.851562 84.253906 104.851562 76.296875 L 104.851562 72.738281 C 110.9375 71.121094 116.894531 69.109375 122.71875 66.703125 Z M 122.71875 66.703125 " fill-opacity="1" fill-rule="nonzero"/></g><g clip-path="url(#e162a39787)"><path fill="#ff6500" d="M 47.464844 1.046875 L 75.886719 1.046875 C 88.777344 1.046875 100.484375 6.3125 108.96875 14.796875 C 117.453125 23.28125 122.71875 34.988281 122.71875 47.875 L 122.71875 56.359375 C 117.148438 58.890625 111.167969 61.078125 104.851562 62.886719 L 104.851562 47.875 C 104.851562 39.921875 101.589844 32.683594 96.335938 27.429688 C 91.082031 22.175781 83.84375 18.914062 75.886719 18.914062 L 47.464844 18.914062 C 39.511719 18.914062 32.269531 22.175781 27.019531 27.429688 C 21.765625 32.683594 18.503906 39.921875 18.503906 47.875 L 18.503906 62.886719 C 12.183594 61.078125 6.203125 58.890625 0.636719 56.359375 L 0.636719 47.875 C 0.636719 34.988281 5.902344 23.28125 14.386719 14.796875 C 22.867188 6.3125 34.578125 1.046875 47.464844 1.046875 Z M 47.464844 1.046875 " fill-opacity="1" fill-rule="nonzero"/></g><g fill="#404041" fill-opacity="1"><g transform="translate(31.158725, 97.35503)"><g><path d="M 12.34375 -21.171875 C 14.132812 -19.878906 16.21875 -18.6875 18.59375 -17.59375 C 20.976562 -16.5 23.375 -15.644531 25.78125 -15.03125 C 28.195312 -14.414062 30.425781 -14.132812 32.46875 -14.1875 C 34.507812 -14.25 36.160156 -14.738281 37.421875 -15.65625 C 38.679688 -16.582031 39.3125 -18.082031 39.3125 -20.15625 C 39.3125 -22.007812 38.609375 -23.648438 37.203125 -25.078125 C 35.804688 -26.503906 34.015625 -27.847656 31.828125 -29.109375 C 29.648438 -30.367188 27.328125 -31.640625 24.859375 -32.921875 C 22.398438 -34.210938 20.078125 -35.628906 17.890625 -37.171875 C 15.703125 -38.710938 13.921875 -40.472656 12.546875 -42.453125 C 11.179688 -44.441406 10.5 -46.753906 10.5 -49.390625 C 10.5 -52.359375 11.128906 -55.253906 12.390625 -58.078125 C 13.648438 -60.910156 15.507812 -63.375 17.96875 -65.46875 C 20.4375 -67.570312 23.445312 -69.070312 27 -69.96875 C 30.5625 -70.863281 34.648438 -70.878906 39.265625 -70.015625 C 43.890625 -69.148438 49 -67.148438 54.59375 -64.015625 L 48.21875 -51.40625 C 45.582031 -53.644531 42.960938 -55.113281 40.359375 -55.8125 C 37.753906 -56.519531 35.359375 -56.660156 33.171875 -56.234375 C 30.992188 -55.816406 29.242188 -55.035156 27.921875 -53.890625 C 26.609375 -52.742188 25.953125 -51.441406 25.953125 -49.984375 C 25.953125 -48.691406 26.679688 -47.523438 28.140625 -46.484375 C 29.597656 -45.453125 31.488281 -44.414062 33.8125 -43.375 C 36.132812 -42.34375 38.609375 -41.195312 41.234375 -39.9375 C 43.867188 -38.675781 46.347656 -37.191406 48.671875 -35.484375 C 51.003906 -33.773438 52.910156 -31.757812 54.390625 -29.4375 C 55.867188 -27.113281 56.609375 -24.328125 56.609375 -21.078125 C 56.609375 -17.773438 55.710938 -14.582031 53.921875 -11.5 C 52.128906 -8.425781 49.632812 -5.769531 46.4375 -3.53125 C 43.25 -1.289062 39.472656 0.191406 35.109375 0.921875 C 30.742188 1.648438 25.96875 1.367188 20.78125 0.078125 C 15.601562 -1.203125 10.160156 -3.859375 4.453125 -7.890625 Z M 12.34375 -21.171875 "/></g></g></g></g></g></svg>