<svg xmlns="http://www.w3.org/2000/svg" xmlns:xlink="http://www.w3.org/1999/xlink" width="720" zoomAndPan="magnify" viewBox="0 280 720 170" height="170" preserveAspectRatio="xMidYMid meet" version="1.0"><defs><g/><clipPath id="8807617014"><path d="M 0.636719 65 L 122.199219 65 L 122.199219 121.824219 L 0.636719 121.824219 Z M 0.636719 65 " clip-rule="nonzero"/></clipPath><clipPath id="f375acd0db"><path d="M 0.636719 0.265625 L 122.199219 0.265625 L 122.199219 62 L 0.636719 62 Z M 0.636719 0.265625 " clip-rule="nonzero"/></clipPath><clipPath id="d9da262ad6"><rect x="0" width="687" y="0" height="127"/></clipPath></defs><!-- removed bg --><!-- removed bg --><g transform="matrix(1, 0, 0, 1, 30, 313)"><g clip-path="url(#d9da262ad6)"><g fill="#ffffff" fill-opacity="1"><g transform="translate(130.26672, 96.22859)"><g><path d="M 20.65625 -34.546875 C 20.65625 -30.972656 21.503906 -27.691406 23.203125 -24.703125 C 24.910156 -21.722656 27.210938 -19.328125 30.109375 -17.515625 C 33.003906 -15.703125 36.238281 -14.796875 39.8125 -14.796875 C 43.382812 -14.796875 46.601562 -15.703125 49.46875 -17.515625 C 52.34375 -19.328125 54.628906 -21.722656 56.328125 -24.703125 C 58.035156 -27.691406 58.890625 -30.972656 58.890625 -34.546875 C 58.890625 -38.109375 58.035156 -41.378906 56.328125 -44.359375 C 54.628906 -47.347656 52.34375 -49.734375 49.46875 -51.515625 C 46.601562 -53.304688 43.382812 -54.203125 39.8125 -54.203125 C 36.238281 -54.203125 33.003906 -53.304688 30.109375 -51.515625 C 27.210938 -49.734375 24.910156 -47.347656 23.203125 -44.359375 C 21.503906 -41.378906 20.65625 -38.109375 20.65625 -34.546875 Z M 5.015625 -34.546875 C 5.015625 -39.390625 5.90625 -43.957031 7.6875 -48.25 C 9.476562 -52.550781 11.960938 -56.359375 15.140625 -59.671875 C 18.316406 -62.992188 22.007812 -65.585938 26.21875 -67.453125 C 30.425781 -69.328125 34.957031 -70.265625 39.8125 -70.265625 C 44.664062 -70.265625 49.195312 -69.328125 53.40625 -67.453125 C 57.613281 -65.585938 61.289062 -62.992188 64.4375 -59.671875 C 67.59375 -56.359375 70.0625 -52.550781 71.84375 -48.25 C 73.632812 -43.957031 74.53125 -39.390625 74.53125 -34.546875 C 74.53125 -29.691406 73.632812 -25.101562 71.84375 -20.78125 C 70.0625 -16.457031 67.59375 -12.648438 64.4375 -9.359375 C 61.289062 -6.078125 57.613281 -3.488281 53.40625 -1.59375 C 49.195312 0.300781 44.664062 1.25 39.8125 1.25 C 34.957031 1.25 30.425781 0.300781 26.21875 -1.59375 C 22.007812 -3.488281 18.316406 -6.078125 15.140625 -9.359375 C 11.960938 -12.648438 9.476562 -16.457031 7.6875 -20.78125 C 5.90625 -25.101562 5.015625 -29.691406 5.015625 -34.546875 Z M 5.015625 -34.546875 "/></g></g></g><g fill="#ffffff" fill-opacity="1"><g transform="translate(211.47713, 96.22859)"><g><path d="M 45.421875 -69 L 45.421875 -55.203125 L 21.15625 -55.203125 L 21.15625 -41.484375 L 43.578125 -41.484375 L 43.578125 -27.6875 L 21.15625 -27.6875 L 21.15625 0 L 5.4375 0 L 5.4375 -69 Z M 45.421875 -69 "/></g></g></g><g fill="#ffffff" fill-opacity="1"><g transform="translate(264.000455, 96.22859)"><g><path d="M 4.265625 -55.203125 L 4.265625 -69 L 52.78125 -69 L 52.78125 -55.203125 L 36.390625 -55.203125 L 36.390625 0 L 20.65625 0 L 20.65625 -55.203125 Z M 4.265625 -55.203125 "/></g></g></g><g fill="#ffffff" fill-opacity="1"><g transform="translate(322.71284, 96.22859)"><g><path d="M 21.25 -69 L 21.25 -13.796875 L 45 -13.796875 L 45 0 L 5.515625 0 L 5.515625 -69 Z M 21.25 -69 "/></g></g></g><g fill="#ffffff" fill-opacity="1"><g transform="translate(374.901619, 96.22859)"><g><path d="M 46.171875 -69 L 74.109375 0 L 57.203125 0 L 52.03125 -13.796875 L 25.765625 -13.796875 L 20.75 0 L 3.84375 0 L 31.609375 -69 Z M 46.671875 -27.59375 L 38.8125 -47.671875 L 31.109375 -27.59375 Z M 46.671875 -27.59375 "/></g></g></g><g fill="#ffffff" fill-opacity="1"><g transform="translate(454.439294, 96.22859)"><g><path d="M 6.265625 0 L 6.265625 -69 L 49.4375 -33.453125 L 49.59375 -69 L 65.328125 -69 L 65.328125 0 L 22 -35.46875 L 22 0 Z M 6.265625 0 "/></g></g></g><g fill="#ffffff" fill-opacity="1"><g transform="translate(527.704288, 96.22859)"><g><path d="M 45.421875 -69 L 45.421875 -55.203125 L 21.65625 -55.203125 L 21.65625 -41.484375 L 44.40625 -41.484375 L 44.40625 -27.6875 L 21.65625 -27.6875 L 21.65625 -13.796875 L 45.421875 -13.796875 L 45.421875 0 L 5.9375 0 L 5.9375 -69 Z M 45.421875 -69 "/></g></g></g><g fill="#ffffff" fill-opacity="1"><g transform="translate(580.645783, 96.22859)"><g/></g></g><g fill="#ffffff" fill-opacity="1"><g transform="translate(596.202095, 96.22859)"><g><path d="M 22 -69 L 22 0 L 6.265625 0 L 6.265625 -69 Z M 22 -69 "/></g></g></g><g fill="#ffffff" fill-opacity="1"><g transform="translate(626.143745, 96.22859)"><g><path d="M 4.265625 -55.203125 L 4.265625 -69 L 52.78125 -69 L 52.78125 -55.203125 L 36.390625 -55.203125 L 36.390625 0 L 20.65625 0 L 20.65625 -55.203125 Z M 4.265625 -55.203125 "/></g></g></g><g clip-path="url(#8807617014)"><path fill="#ffffff" d="M 122.289062 65.691406 L 122.289062 75.25 C 122.289062 88.09375 117.042969 99.761719 108.589844 108.214844 C 100.136719 116.667969 88.464844 121.917969 75.625 121.917969 L 47.300781 121.917969 C 34.460938 121.917969 22.792969 116.667969 14.335938 108.214844 C 5.882812 99.761719 0.636719 88.09375 0.636719 75.25 L 0.636719 65.691406 C 6.4375 68.089844 12.375 70.09375 18.441406 71.707031 L 18.441406 75.25 C 18.441406 83.179688 21.691406 90.394531 26.925781 95.628906 C 32.160156 100.863281 39.375 104.113281 47.300781 104.113281 L 75.625 104.113281 C 83.550781 104.113281 90.765625 100.863281 96 95.628906 C 101.234375 90.394531 104.484375 83.179688 104.484375 75.25 L 104.484375 71.707031 C 110.550781 70.09375 116.488281 68.089844 122.289062 65.691406 Z M 122.289062 65.691406 " fill-opacity="1" fill-rule="nonzero"/></g><g clip-path="url(#f375acd0db)"><path fill="#ff6500" d="M 47.300781 0.265625 L 75.625 0.265625 C 88.464844 0.265625 100.136719 5.511719 108.589844 13.964844 C 117.042969 22.417969 122.289062 34.085938 122.289062 46.929688 L 122.289062 55.382812 C 116.742188 57.902344 110.78125 60.085938 104.484375 61.886719 L 104.484375 46.929688 C 104.484375 39.003906 101.234375 31.789062 96 26.554688 C 90.765625 21.316406 83.550781 18.070312 75.625 18.070312 L 47.300781 18.070312 C 39.375 18.070312 32.160156 21.316406 26.925781 26.554688 C 21.691406 31.789062 18.441406 39.003906 18.441406 46.929688 L 18.441406 61.886719 C 12.144531 60.085938 6.183594 57.902344 0.636719 55.382812 L 0.636719 46.929688 C 0.636719 34.085938 5.882812 22.417969 14.335938 13.964844 C 22.789062 5.511719 34.460938 0.265625 47.300781 0.265625 Z M 47.300781 0.265625 " fill-opacity="1" fill-rule="nonzero"/></g><g fill="#ffffff" fill-opacity="1"><g transform="translate(31.051715, 96.234537)"><g><path d="M 12.296875 -21.09375 C 14.085938 -19.8125 16.164062 -18.625 18.53125 -17.53125 C 20.90625 -16.445312 23.289062 -15.597656 25.6875 -14.984375 C 28.09375 -14.367188 30.3125 -14.085938 32.34375 -14.140625 C 34.382812 -14.203125 36.03125 -14.691406 37.28125 -15.609375 C 38.539062 -16.523438 39.171875 -18.019531 39.171875 -20.09375 C 39.171875 -21.925781 38.472656 -23.554688 37.078125 -24.984375 C 35.679688 -26.410156 33.894531 -27.75 31.71875 -29 C 29.539062 -30.257812 27.222656 -31.53125 24.765625 -32.8125 C 22.316406 -34.09375 20.003906 -35.5 17.828125 -37.03125 C 15.648438 -38.570312 13.878906 -40.332031 12.515625 -42.3125 C 11.148438 -44.289062 10.46875 -46.59375 10.46875 -49.21875 C 10.46875 -52.175781 11.09375 -55.0625 12.34375 -57.875 C 13.601562 -60.695312 15.457031 -63.15625 17.90625 -65.25 C 20.363281 -67.34375 23.363281 -68.832031 26.90625 -69.71875 C 30.445312 -70.613281 34.519531 -70.628906 39.125 -69.765625 C 43.726562 -68.898438 48.820312 -66.90625 54.40625 -63.78125 L 48.046875 -51.21875 C 45.421875 -53.457031 42.8125 -54.925781 40.21875 -55.625 C 37.625 -56.320312 35.238281 -56.457031 33.0625 -56.03125 C 30.882812 -55.613281 29.140625 -54.832031 27.828125 -53.6875 C 26.515625 -52.550781 25.859375 -51.253906 25.859375 -49.796875 C 25.859375 -48.515625 26.582031 -47.359375 28.03125 -46.328125 C 29.488281 -45.296875 31.375 -44.265625 33.6875 -43.234375 C 36.007812 -42.203125 38.476562 -41.054688 41.09375 -39.796875 C 43.71875 -38.546875 46.1875 -37.066406 48.5 -35.359375 C 50.820312 -33.660156 52.722656 -31.648438 54.203125 -29.328125 C 55.679688 -27.015625 56.421875 -24.242188 56.421875 -21.015625 C 56.421875 -17.722656 55.523438 -14.539062 53.734375 -11.46875 C 51.953125 -8.394531 49.46875 -5.742188 46.28125 -3.515625 C 43.101562 -1.285156 39.335938 0.191406 34.984375 0.921875 C 30.628906 1.648438 25.867188 1.367188 20.703125 0.078125 C 15.546875 -1.203125 10.125 -3.851562 4.4375 -7.875 Z M 12.296875 -21.09375 "/></g></g></g></g></g></svg>